<?xml version="1.0" encoding="UTF-8"?>
<svg id="Layer_1" data-name="Layer 1" xmlns="http://www.w3.org/2000/svg" viewBox="0 0 38.2 10.9">
  <defs>
    <style>
      .cls-1 {
        fill: #606060;
        stroke-width: 0px;
      }
    </style>
  </defs>
  <g>
    <g>
      <path class="cls-1" d="m11.9,9.1c.1,0,.3-.1.5-.1.4,0,.6.2.6.6v.8h-.1v-.2h0s0,0,0,0c0,0,0,0,0,0,0,0,0,0,0,0,0,0,0,0,0,0,0,0,0,0,0,0,0,0,0,0,0,0,0,0,0,0-.1,0,0,0,0,0-.1,0-.2,0-.3,0-.4-.1,0,0-.1-.2-.1-.3s0-.2.2-.3c.1,0,.3-.1.4-.1h.5c0-.2,0-.3-.3-.4,0,0-.1,0-.2,0s-.1,0-.2,0c0,0,0,0-.1,0,0,0,0,0,0,0,0,0,0,0,0,0,0,0,0,0,0,0h0Zm1,.7v-.2h-.4c-.1,0-.2,0-.3,0,0,0-.2,0-.2.1,0,0,0,0,0,0,0,0,0,0,0,.1,0,0,0,0,0,.1,0,0,0,0,0,.1,0,0,0,0,.1,0,0,0,.1,0,.2,0s.1,0,.2,0c0,0,0,0,.1,0,0,0,0,0,0,0,0,0,0,0,0,0,0,0,0,0,0,0,0,0,0,0,0,0,0,0,0,0,0,0,0,0,0,0,0,0h0Z"/>
      <path class="cls-1" d="m14.4,9h.5c0,.1-.5.1-.5.1v.7h0c0,.1,0,.2,0,.2s0,0,0,0,0,0,0,0c0,0,0,0,0,0,0,0,0,0,0,0,0,.1.2.1.4,0h0c0,.1,0,.1,0,.1,0,0,0,0,0,0,0,0,0,0,0,0,0,0,0,0,0,0,0,0,0,0,0,0h0s0,0,0,0c0,0,0,0,0,0,0,0,0,0,0,0,0,0,0,0,0,0,0,0,0,0,0-.2,0,0,0-.1,0-.2v-.2h0v-.7h-.2c0-.1.2-.1.2-.1v-.5h.1v.5Z"/>
      <path class="cls-1" d="m15.2,9.1c.2,0,.3-.1.5-.1.4,0,.6.2.6.6v.8h-.1v-.2h0s0,0,0,0c0,0,0,0,0,0,0,0,0,0,0,0,0,0,0,0,0,0,0,0,0,0,0,0,0,0,0,0,0,0,0,0,0,0,0,0,0,0,0,0-.1,0-.2,0-.3,0-.4-.1,0,0-.1-.2-.1-.3s0-.2.2-.3c.1,0,.3-.1.4-.1h.5c0-.2,0-.3-.3-.4,0,0-.1,0-.2,0s-.1,0-.2,0c0,0,0,0-.1,0,0,0,0,0,0,0,0,0,0,0,0,0,0,0,0,0,0,0h0Zm1,.7v-.2h-.4c-.1,0-.2,0-.3,0,0,0-.2,0-.2.1,0,0,0,0,0,0,0,0,0,0,0,.1,0,0,0,0,0,.1,0,0,0,0,0,.1,0,0,0,0,.1,0,0,0,.1,0,.2,0s.1,0,.1,0c0,0,0,0,.1,0,0,0,0,0,0,0,0,0,0,0,0,0,0,0,0,0,0,0,0,0,0,0,0,0,0,0,0,0,0,0,0,0,0,0,0,0,0,0,0,0,0-.1Z"/>
      <path class="cls-1" d="m18.1,10.2h0s0,0,0,.2c0,0,0,.1,0,.2,0,0,0,.1-.1.2,0,0-.1,0-.2.1,0,0-.2,0-.3,0-.2,0-.4,0-.5-.1v-.2c.1.1.3.2.5.2s.1,0,.2,0c0,0,.1,0,.1,0,0,0,0,0,.1-.1,0,0,0,0,0-.1,0,0,0,0,0-.1,0,0,0,0,0,0,0,0,0,0,0,0v-.2s0,0,0,.1c0,0,0,0-.1.1,0,0-.1,0-.2,0,0,0-.1,0-.2,0s-.2,0-.2,0c0,0-.1,0-.2-.1,0,0-.1-.1-.2-.2,0,0,0-.2,0-.3s0-.2,0-.3c0-.1.1-.2.2-.3.1,0,.2-.1.3-.1s.1,0,.2,0c0,0,.1,0,.1,0,0,0,0,0,.1,0,0,0,0,0,0,0,0,0,0,0,0,0,0,0,0,0,0,0v-.3h.1v1.2Zm-.7,0c.1,0,.3,0,.4-.2.1-.1.2-.2.2-.4s0-.3-.2-.4c-.1-.1-.3-.2-.4-.2s-.3,0-.4.2c-.1.1-.2.2-.2.4s0,.3.2.4c.1.1.2.2.4.2Z"/>
      <path class="cls-1" d="m18.6,9.8h0s0,0,0,.1c0,0,0,0,0,.1,0,0,0,0,0,0,0,0,0,0,0,0,0,0,0,0,0,0,0,.1.2.1.4,0h0c0,.1,0,.1,0,.1,0,0,0,0,0,0h0s0,0,0,0c0,0,0,0,0,0,0,0,0,0,0,0,0,0,0,0,0,0,0,0,0,0,0,0,0,0,0,0,0,0,0,0,0,0,0,0,0,0,0,0,0-.1,0,0,0,0,0-.1,0,0,0,0,0-.1,0,0,0,0,0,0h0v-1.4h.1v1.4Z"/>
      <path class="cls-1" d="m19.4,8.6h.2v.2h-.2v-.2Zm.2.7v-.3h-.1v1.4h.1v-1.2Z"/>
      <path class="cls-1" d="m20.1,10.4h-.1v-1.4h.1v.2c.1-.2.3-.3.5-.3s.3,0,.4.2c.1.1.2.3.2.4v.8h-.1v-.8c0-.4-.2-.5-.5-.5-.2,0-.4.1-.5.4v1Z"/>
      <path class="cls-1" d="m21.8,9.8c0,0,0,.1,0,.2,0,0,0,.1.1.2,0,0,.1.1.2.1,0,0,.1,0,.2,0s.2,0,.2,0c0,0,0,0,.1,0v.2s0,0,0,0c0,0-.2,0-.3,0s-.2,0-.3,0c0,0-.2,0-.2-.2,0,0-.1-.1-.2-.2,0,0,0-.2,0-.3h0c0,0,0-.2,0-.3,0,0,0-.2.2-.2,0,0,.1-.1.2-.2,0,0,.2,0,.3,0s0,0,.1,0c0,0,0,0,.1,0,0,0,.1,0,.1.1,0,0,0,.1.1.2,0,0,0,.2,0,.3h-1.2Zm.6-.7c0,0-.2,0-.2,0,0,0-.1,0-.2.1,0,0,0,.1-.1.2,0,0,0,.1,0,.2h1s0-.1,0-.2c0,0,0-.1,0-.2,0,0,0,0,0-.1,0,0,0,0,0,0,0,0,0,0,0,0,0,0,0,0,0,0s0,0,0,0Z"/>
      <path class="cls-1" d="m25.4,10.2h0s0,0,0,.2c0,0,0,.1,0,.2,0,0,0,.1-.1.2,0,0-.1,0-.2.1,0,0-.2,0-.3,0-.2,0-.4,0-.5-.1v-.2c.1.1.3.2.5.2s.1,0,.2,0c0,0,.1,0,.2,0,0,0,0,0,0-.1,0,0,0,0,0-.1,0,0,0,0,0-.1,0,0,0,0,0,0h0v-.3s0,0,0,.1c0,0,0,0-.1.1,0,0-.1,0-.2,0,0,0-.1,0-.2,0s-.2,0-.2,0c0,0-.2,0-.2-.1,0,0-.1-.1-.2-.2,0,0,0-.2,0-.3s0-.2,0-.3c0-.1.1-.2.2-.3.1,0,.2-.1.3-.1s.1,0,.2,0c0,0,.1,0,.2,0,0,0,0,0,.1,0,0,0,0,0,0,0,0,0,0,0,0,0,0,0,0,0,0,0v-.3h.1v1.2Zm-.7,0c.2,0,.3,0,.4-.2.1-.1.2-.2.2-.4s0-.3-.2-.4c-.1-.1-.3-.2-.4-.2s-.3,0-.4.2c-.1.1-.2.2-.2.4s0,.3.2.4c.1.1.2.2.4.2Z"/>
      <path class="cls-1" d="m26.6,10.5c-.1,0-.2,0-.3,0,0,0-.2,0-.2-.2,0,0-.1-.1-.2-.2,0,0,0-.2,0-.3h0c0,0,0-.2,0-.3,0,0,0-.2.2-.2,0,0,.1-.1.2-.2,0,0,.2,0,.3,0s.2,0,.3,0c0,0,.2,0,.2.2,0,0,.1.1.2.2,0,0,0,.2,0,.3h0c0,.1,0,.2,0,.3,0,0,0,.2-.2.2,0,0-.1.1-.2.2,0,0-.2,0-.3,0Zm0-.1c0,0,.2,0,.2,0,0,0,.1,0,.2-.1,0,0,0-.1.1-.2,0,0,0-.2,0-.2h0c0,0,0-.2,0-.2,0,0,0-.1-.1-.2,0,0-.1,0-.2-.1,0,0-.2,0-.2,0s-.2,0-.2,0c0,0-.1,0-.2.1,0,0,0,.1-.1.2,0,0,0,.2,0,.2h0c0,0,0,.2,0,.2,0,0,0,.1.1.2,0,0,.1.1.2.1,0,0,.1,0,.2,0Z"/>
      <path class="cls-1" d="m27.8,9.8c0,0,0,.1,0,.2,0,0,0,.1.1.2,0,0,.1.1.2.1,0,0,.1,0,.2,0s.2,0,.2,0c0,0,0,0,.1,0v.2s0,0,0,0c0,0-.2,0-.3,0s-.2,0-.3,0c0,0-.2,0-.2-.2,0,0-.1-.1-.2-.2,0,0,0-.2,0-.3h0c0,0,0-.2,0-.3,0,0,0-.2.2-.2,0,0,.1-.1.2-.2s.2,0,.3,0,.1,0,.1,0c0,0,.1,0,.2,0,0,0,.1,0,.1.1,0,0,0,.1.1.2,0,0,0,.2,0,.3h-1.2Zm.6-.7c0,0-.2,0-.2,0,0,0-.1,0-.2.1,0,0,0,.1-.1.2,0,0,0,.1,0,.2h1s0-.1,0-.2c0,0,0-.1,0-.2,0,0,0,0,0-.1,0,0,0,0,0,0,0,0,0,0,0,0,0,0,0,0,0,0s0,0,0,0Z"/>
      <path class="cls-1" d="m30.2,9.3s0,0,0,0c0,0,0,0-.1,0,0,0-.1,0-.2,0,0,0-.1,0-.2,0,0,0-.1,0-.2.1,0,0,0,.1,0,.2,0,0,0,0,.1.1,0,0,.1,0,.2,0,0,0,.2,0,.2,0,0,0,.1,0,.2.1,0,0,0,.1,0,.2,0,.1,0,.2-.1.3,0,0-.1.1-.2.1,0,0-.2,0-.3,0,0,0-.2,0-.3,0,0,0-.1,0-.2-.1h0c0-.1,0,0,0,0,0,0,0,0,.2,0,0,0,.2,0,.2,0,.1,0,.2,0,.3,0,0,0,0-.1,0-.2s0,0,0-.1c0,0-.1,0-.2,0,0,0-.1,0-.2,0-.1,0-.2,0-.3-.2,0,0,0-.2,0-.3,0-.1,0-.2.2-.2.1,0,.2,0,.3,0,0,0,.1,0,.2,0,0,0,.1,0,.2,0h0s0,.1,0,.1Z"/>
      <path class="cls-1" d="m31.5,9.3s0,0,0,0c0,0,0,0,0,0,0,0,0,0,.2,0,0,0,.1,0,.2,0s.2,0,.3,0c0,0,.1,0,.2.2,0,0,0,.1,0,.2,0,0,0,.1,0,.2v.8h-.1v-.8h0s0,0,0-.1c0,0,0,0,0-.1,0,0,0,0,0-.1,0,0,0,0,0,0,0,0,0,0-.1,0,0,0-.1,0-.2,0-.2,0-.4.1-.5.3v1h-.1v-2h.1v.9Z"/>
      <path class="cls-1" d="m33.1,9.8c0,0,0,.1,0,.2,0,0,0,.1.1.2,0,0,.1.1.2.1,0,0,.2,0,.2,0s.2,0,.2,0c0,0,0,0,.1,0v.2s0,0,0,0c0,0-.2,0-.3,0s-.2,0-.3,0c0,0-.2,0-.2-.2,0,0-.1-.1-.1-.2,0,0,0-.2,0-.3h0c0,0,0-.2,0-.3,0,0,0-.2.1-.2,0,0,.1-.1.2-.2,0,0,.2,0,.3,0s0,0,.1,0c0,0,0,0,.2,0,0,0,.1,0,.2.1,0,0,0,.1.1.2,0,0,0,.2,0,.3h-1.2Zm.6-.7c0,0-.2,0-.2,0,0,0-.1,0-.2.1,0,0,0,.1-.1.2,0,0,0,.1,0,.2h1s0-.1,0-.2c0,0,0-.1,0-.2,0,0,0,0,0-.1,0,0,0,0,0,0,0,0,0,0,0,0,0,0,0,0,0,0s0,0,0,0Z"/>
      <path class="cls-1" d="m35.4,9.2s0,0,0,0c0,0,0,0-.1,0,0,0-.1,0-.2,0,0,0,0,0-.1.2,0,0,0,.2,0,.3v.7h-.1v-1.4h.1v.3h0c0,0,.2-.1.3-.2.1,0,.2,0,.3,0h0Z"/>
      <path class="cls-1" d="m35.5,9.8c0,0,0,.1,0,.2,0,0,0,.1.1.2,0,0,.1.1.2.1,0,0,.1,0,.2,0s.2,0,.2,0c0,0,0,0,.1,0v.2s0,0,0,0c0,0-.2,0-.3,0s-.2,0-.3,0c0,0-.2,0-.2-.2,0,0-.1-.1-.2-.2,0,0,0-.2,0-.3h0c0,0,0-.2,0-.3,0,0,0-.2.2-.2,0,0,.2-.1.2-.2,0,0,.2,0,.3,0s0,0,.1,0c0,0,0,0,.2,0,0,0,0,0,.2.1,0,0,0,.1,0,.2,0,0,0,.2,0,.3h-1.2Zm.6-.7c0,0-.2,0-.2,0,0,0-.1,0-.2.1,0,0,0,.1-.1.2,0,0,0,.1,0,.2h1s0-.1,0-.2c0,0,0-.1,0-.2,0,0,0,0,0-.1,0,0,0,0,0,0,0,0,0,0,0,0,0,0,0,0,0,0s0,0,0,0Z"/>
    </g>
    <polygon class="cls-1" points="11.2 10 0 10 0 9.9 11.2 9.9 11.2 10"/>
  </g>
  <g>
    <path class="cls-1" d="m3.8,0h1.2l2.7,7.5h-1.6l-.5-1.5h-2.9l-.5,1.5H.6L3.1.5c.1-.3.4-.5.7-.5Zm.3,1.5l-1,3.2h2.1l-1-3.2Z"/>
    <path class="cls-1" d="m9.6.7v1.7c.2-.3.4-.5.7-.7.3-.1.6-.2,1-.2.7,0,1.2.3,1.7.9.4.6.7,1.3.7,2.2s-.2,1.6-.7,2.2c-.2.3-.5.5-.9.6-.4.1-.7.2-1.1.2-.7,0-1.3-.2-1.9-.5-.6-.4-.9-1.1-.9-2.1V0h.7c.2,0,.4,0,.5.2.1.1.2.3.2.5Zm2.5,3.8c0-.5-.1-.9-.3-1.2-.2-.3-.5-.5-.9-.5s-.7.1-.9.4c-.2.3-.3.7-.3,1.2s.1,1.1.3,1.3c.2.3.5.5.9.5s.7-.2.9-.5c.2-.3.3-.7.3-1.3Z"/>
    <path class="cls-1" d="m13.8,5.6h1.5c0,.3.1.5.3.7.2.1.5.2.9.2s.5,0,.7-.2c.2-.1.3-.2.3-.4,0-.3-.3-.5-.9-.6-.3,0-.5,0-.6-.1-.8-.2-1.3-.4-1.5-.7-.3-.3-.4-.6-.4-1.1s.2-1,.6-1.4c.4-.3,1-.5,1.7-.5s1.4.2,1.8.5c.4.4.6.8.7,1.4h-.9c-.3,0-.5-.1-.6-.4,0,0-.1-.1-.2-.2-.2-.1-.4-.2-.7-.2s-.5,0-.7.1c-.1,0-.2.2-.2.4s.4.4,1.1.6c0,0,.2,0,.2,0,0,0,.1,0,.2,0,.7.2,1.3.4,1.5.7.3.3.4.6.4,1.1,0,.6-.2,1.1-.7,1.5-.4.3-1.1.5-2,.5s-1.5-.2-1.9-.5c-.4-.3-.6-.8-.6-1.5h0Z"/>
    <path class="cls-1" d="m21.7,7.5c-.5,0-1,0-1.6,0-.6,0-.8-.4-.8-1.1V0h.8c.2,0,.4,0,.5.2.1.1.2.3.2.5v1h.9v.3c0,.2,0,.4-.2.5-.1.1-.3.2-.5.2h-.2v3.2c0,.2.1.4.4.4h.5v1.1Z"/>
    <path class="cls-1" d="m21.9,7.5v-2.8c0-.6,0-1,.2-1.4.2-.4.4-.7.7-.9.3-.2.6-.4,1-.5.4-.1.8-.2,1.1-.2h.2v1.5h-.5c-.4,0-.7.1-.9.3-.2.2-.3.5-.3,1v3h-1.5Z"/>
    <path class="cls-1" d="m29,7.3c-.3.2-.6.3-1,.3-.3,0-.6,0-.9,0-.5,0-1-.1-1.4-.4-.4-.3-.6-.8-.6-1.4s.2-1.1.5-1.3c.4-.3.8-.4,1.4-.5,0,0,.2,0,.3,0,.1,0,.2,0,.3,0,.6,0,1-.3,1-.6s-.1-.4-.3-.4c-.2,0-.4,0-.6,0s-.4,0-.5,0c-.2,0-.3.2-.3.3h-1.5c0-.5.3-.8.6-1.1.4-.3,1-.5,1.7-.5s1.4.1,1.8.4c.4.3.6.7.6,1.2v2c0,.6-.1,1-.3,1.4-.2.3-.5.6-.8.7Zm-.3-2.7c-.2.1-.5.2-.9.3h-.5c-.3.2-.5.3-.6.4-.1.2-.2.3-.2.5,0,.2,0,.4.2.5.1.1.3.2.6.2.4,0,.7-.1,1-.3.2-.2.3-.6.3-1v-.5Z"/>
    <path class="cls-1" d="m34.3,5.7h1.1c-.2.6-.5,1.1-.9,1.4-.4.3-1,.5-1.7.5s-1.5-.3-1.9-.8c-.5-.5-.7-1.3-.7-2.2s.2-1.7.7-2.2c.5-.5,1.1-.8,1.9-.8s1.6.3,2,.8c.3.3.4.7.6,1.1h-1.5c0-.1-.1-.3-.2-.3-.2-.2-.5-.3-.8-.3s-.6.1-.8.3c-.3.3-.4.8-.4,1.4s.1,1.1.4,1.4c.2.2.5.3.8.3s.5,0,.6-.2c0,0,0,0,.1,0,0,0,0,0,.1-.1,0,0,0-.1.2-.2,0,0,.2-.1.4-.1Z"/>
    <path class="cls-1" d="m38.2,7.5c-.5,0-1,0-1.6,0-.6,0-.8-.4-.8-1.1V0h.8c.2,0,.4,0,.5.2.2.1.2.3.2.5v1h.9v.3c0,.2,0,.4-.2.5-.1.1-.3.2-.5.2h-.2v3.2c0,.2.1.4.4.4h.5v1.1Z"/>
  </g>
</svg>