<?xml version="1.0" encoding="UTF-8"?>
<svg id="Calque_1" data-name="Calque 1" xmlns="http://www.w3.org/2000/svg" xmlns:xlink="http://www.w3.org/1999/xlink" viewBox="0 0 198.1 148.5">
  <defs>
    <style>
      .cls-1 {
        fill: url(#linear-gradient);
      }

      .cls-1, .cls-2, .cls-3, .cls-4 {
        stroke-width: 0px;
      }

      .cls-2 {
        fill: url(#linear-gradient-4);
      }

      .cls-3 {
        fill: url(#linear-gradient-2);
      }

      .cls-4 {
        fill: url(#linear-gradient-3);
      }
    </style>
    <linearGradient id="linear-gradient" x1="193.8" y1="82.4" x2="75.7" y2="82.4" gradientUnits="userSpaceOnUse">
      <stop offset="0" stop-color="#0ca4fd"/>
      <stop offset="0" stop-color="#10a0fd" stop-opacity="1"/>
      <stop offset=".2" stop-color="#1e97fd" stop-opacity=".9"/>
      <stop offset=".4" stop-color="#3388fd" stop-opacity=".7"/>
      <stop offset=".6" stop-color="#5173fe" stop-opacity=".4"/>
      <stop offset=".9" stop-color="#7659fe" stop-opacity=".1"/>
      <stop offset="1" stop-color="#874eff" stop-opacity="0"/>
    </linearGradient>
    <linearGradient id="linear-gradient-2" x1="-5.4" y1="66.1" x2="92.2" y2="66.1" xlink:href="#linear-gradient"/>
    <linearGradient id="linear-gradient-3" x1="67.1" x2="121.8" y2="82.4" xlink:href="#linear-gradient"/>
    <linearGradient id="linear-gradient-4" x1="1990.2" y1="364.5" x2="2044.9" y2="364.5" gradientTransform="translate(2121.2 430.6) rotate(-180)" xlink:href="#linear-gradient"/>
  </defs>
  <path class="cls-1" d="m194.2,71.1l-39-49.7c-1.8-2.3-4.2-3.9-6.9-4.6-1.1-.3-2.3-.5-3.4-.5h-13.3l-7.6,18.3h9.6c2.3,0,4.6.9,6.3,2.4.4.4.8.8,1.2,1.3l28.2,36c3.8,4.8,3.8,11.6,0,16.4l-28.2,36c-1.8,2.3-4.6,3.6-7.5,3.6h-55.9l-7.6,18.3h74.7c4,0,7.9-1.9,10.4-5l39-49.7c5.2-6.7,5.2-16,0-22.7Z"/>
  <path class="cls-3" d="m53.3,0c-4,0-7.9,1.9-10.4,5L3.9,54.8c-5.2,6.7-5.2,16,0,22.7l39,49.7c2.5,3.2,6.3,5,10.4,5h13.3l7.6-18.3h-9.7c-2.9,0-5.7-1.3-7.5-3.6l-28.2-36c-3.8-4.8-3.8-11.6,0-16.4l28.2-36c1.8-2.3,4.6-3.6,7.5-3.6h55.8L128,0H53.3Z"/>
  <polygon class="cls-4" points="87 148.5 70.1 148.5 124.9 16.3 141.9 16.3 87 148.5"/>
  <polygon class="cls-2" points="111 0 128 0 73.2 132.2 56.2 132.2 111 0"/>
</svg>