<?xml version="1.0" encoding="UTF-8"?>
<svg id="graphics" xmlns="http://www.w3.org/2000/svg" viewBox="0 0 310.3 101.2">
  <defs>
    <style>
      .cls-1 {
        fill: #606060;
        stroke-width: 0px;
      }
    </style>
  </defs>
  <g>
    <path class="cls-1" d="m8.4,3.2c0-.4.5-.4.5-.4C8.9,2.8,18.6,0,31,.3c12.6.4,22.4,6.8,20.3,18.9-1.5,8.8-9.1,21.3-31.2,20.4l-.7,4c-1.8,13.1,4.5,10.3,3.2,12.6-1.6,3-7.4,6.7-12.3,6.7S-1.4,58.7.4,48.4L8.4,3.2Zm17,6l-3.9,21.9c6.6,0,11.6-6,12.6-12.1,1.1-6.2-2.4-10.8-8.8-9.8Z"/>
    <path class="cls-1" d="m94,56.8c-1.4,2.6-6.4,5.8-11.1,5.8-6.7,0-11.2-4.8-9.9-12.6.5-2.8,1.8-10.3,2.8-16,1.5-8.3-7.4-5.4-9.3,4.4-2.1,12.2-3.9,22.2-3.9,22.2,0,.4-.4.5-.4.5h-15.9s-.3,0-.2-.4c0,0,8.4-49.8,10-58.7,0-.3.3-.3.3-.3h16.3s.3,0,.2.3c-1.1,6-2.6,14.6-4.4,25,4.8-6.8,11.1-9.3,15.4-9.3,6.1,0,10.4,5.4,8.9,13.6-.6,3.5-1.2,6.7-2.2,12.9-2.3,13.1,4.5,10.3,3.3,12.6Z"/>
    <path class="cls-1" d="m114.9,62.9c-13.3,0-21.3-10-19.2-22.5,2.1-12.4,13.7-22.5,27-22.5s21.4,10.1,19.3,22.5c-2.2,12.5-13.6,22.5-27.1,22.5Zm1.6-9.3c5,0,7.9-5.9,9.3-13.1,1.2-7.1.2-13.1-4.5-13.1s-7.9,6-9.2,13.1c-1.2,6.9-.3,13.1,4.5,13.1Z"/>
    <path class="cls-1" d="m184.3,49.5c-1.6,3.5-10.2,13.2-22.2,13.2s-20.6-10.1-18.4-22.6c2.1-12.1,13.3-22.5,27.5-22.5s17.9,8.5,16.9,14.4c-2.3,13-17.7,14.5-28.2,12.7,1.4,8.3,12.2,9.1,23.3,3.5.4-.2.8-.3,1.1,0,.3.2.4.6,0,1.3Zm-23.9-12c7.3.7,11.4-2.1,12.2-6.5.4-2.2-1.1-4.1-3.6-4,0,0,0,0-.2,0h-.2c-.6,0-1.3.3-2.1.7-3.1,1.7-5,5.6-6,9.7Z"/>
    <path class="cls-1" d="m235,56.8c-1.4,2.6-6.4,5.8-11,5.8-6.6,0-11.3-4.8-10-12.6.5-2.8,1.8-10.3,2.9-16,1.4-8.3-7.4-5.4-9.3,4.4-1.7,9.4-3.9,22.2-3.9,22.2,0,.4-.5.5-.5.5h-16.5s-.3,0-.2-.4c0,0,4-18.8,5-24.6,2.3-13.1-3.9-10.3-2.6-12.6,1.3-2.6,6.3-5.9,10.9-5.9s9.7,3.6,9.7,9.7c4.9-7.1,11.2-9.7,15.6-9.7,6.2,0,10.5,5.4,9,13.6-.6,3.5-1.2,6.7-2.3,12.9-2.3,13.1,4.5,10.3,3.3,12.6Z"/>
    <path class="cls-1" d="m253.6,61h-16.4s-.3,0-.3-.4c0,0,4-18.8,5-24.6,2.3-13.1-3.7-10.3-2.7-12.6,1.4-2.6,6.4-5.9,11.1-5.9,6.7,0,10.7,4.8,9.3,12.6-1.2,6.4-5.4,30.3-5.4,30.3,0,.4-.4.5-.4.5Zm-1.8-45.6c-5.3,0-9-3.4-8.3-7.7.7-4.2,5.7-7.7,11-7.7s9,3.5,8.3,7.7c-.7,4.3-5.7,7.7-11,7.7Z"/>
    <path class="cls-1" d="m304.7,60.5c0,.2,0,.5-.3.5h-18.3c-.3,0-.6-.2-.7-.4l-6.7-14.3c-7.4,1.9-.8,9.9-1,10.7-.4,2.7-5,5.9-9.6,5.9-6.6,0-10.1-4-9.3-9.7,1-7.3,6.2-11.8,16.4-14.1l-10.1-19.3c0-.2.2-.4.3-.4h17.9c.2,0,.5.2.6.4l6.8,14.1c6.9-1.9.4-9.5.5-10.1.4-2.7,5-5.8,9.6-5.8,6.6,0,10.3,4.5,9.3,10.2-1.2,6.3-8.2,10.7-16,12.3l10.6,20Z"/>
  </g>
  <g>
    <path class="cls-1" d="m7.9,79.7l-3.3,14.9h-2l3.3-14.9h-2.9l.4-1.7h2.9l.5-2.4c.3-1.2.7-2.2,1.4-2.9.7-.7,1.7-1.1,3.1-1.1s.7,0,1.1,0c.3,0,.7,0,1,.2l-.4,1.7c-.2,0-.4,0-.6-.1-.2,0-.4,0-.6,0-.9,0-1.6.2-2,.6-.4.4-.7,1-.9,1.8l-.5,2.3h3.3l-.4,1.7h-3.3Z"/>
    <path class="cls-1" d="m18.8,71.6l-5,23h-2l4.9-23h2Z"/>
    <path class="cls-1" d="m20.2,99c.6,0,1.1-.2,1.6-.6.4-.4.8-.8,1-1.2l1.5-2.6-3.1-16.6h2.1l2.4,14.1h0l7.7-14.1h2.2l-11.8,20.5c-.9,1.5-2.2,2.2-4,2.2s-.6,0-.9,0c-.3,0-.6,0-.9,0l.4-1.6c.6,0,1.1,0,1.7,0Z"/>
    <path class="cls-1" d="m41.8,77.9l-3.6,16.6h-2l3.5-16.6h2Zm1.4-6.4l-.7,3.3h-2l.7-3.3h2Z"/>
    <path class="cls-1" d="m49.4,77.9l-.6,3h0c.6-1,1.5-1.8,2.5-2.5,1-.7,2.2-1,3.4-1s1.4,0,2,.3c.6.2,1.1.4,1.6.8.5.4.8.8,1,1.4.2.6.4,1.3.4,2s0,1.1-.3,2l-2.3,10.7h-2l2.3-10.7c0-.3.1-.5.2-.8,0-.3,0-.6,0-.9,0-.6,0-1-.3-1.4-.2-.4-.5-.7-.8-.9-.3-.2-.7-.4-1.1-.5-.4-.1-.9-.2-1.3-.2-.7,0-1.4.2-2.1.5-.7.3-1.3.8-1.9,1.4-.6.6-1.1,1.3-1.5,2.2-.4.8-.8,1.8-1,2.8l-1.8,8.5h-2l3.5-16.6h1.9Z"/>
    <path class="cls-1" d="m76.4,96.6c-.4,1.1-1,1.9-1.6,2.6-.6.7-1.4,1.2-2.3,1.5-.9.3-2,.5-3.3.5s-1.7,0-2.4-.3c-.8-.2-1.4-.5-2-.9-.6-.4-1-1-1.4-1.7-.3-.7-.5-1.5-.5-2.5h2c0,.7.1,1.3.4,1.8.3.5.6.8,1,1.1.4.3.9.5,1.5.6.6.1,1.1.2,1.7.2.9,0,1.6-.1,2.2-.4.6-.3,1.2-.6,1.6-1.1.4-.5.8-1,1.1-1.6.3-.6.5-1.2.7-1.8.2-.6.4-1.2.5-1.8.1-.6.3-1.1.4-1.6h0c-.6.9-1.4,1.7-2.4,2.2-1.1.5-2.1.8-3.3.8s-1.9-.2-2.6-.5-1.4-.8-1.9-1.4c-.5-.6-.9-1.3-1.2-2.1-.3-.8-.4-1.7-.4-2.7s.2-2.4.6-3.6c.4-1.2.9-2.3,1.7-3.2.7-.9,1.6-1.7,2.7-2.3,1.1-.6,2.2-.9,3.6-.9s1.2,0,1.8.2c.6.2,1.2.4,1.7.7.5.3.9.7,1.3,1.2.3.5.6,1.1.7,1.7h0l.7-3.4h1.9l-3.2,14.9c-.3,1.4-.7,2.7-1.1,3.7Zm-10-7.3c.2.6.4,1.2.8,1.7.4.5.8.9,1.4,1.1.6.3,1.2.4,2,.4s2-.3,2.8-.8c.8-.5,1.5-1.2,2.1-2,.6-.8,1-1.7,1.3-2.7.3-1,.5-1.9.5-2.9s0-1.4-.2-2c-.2-.6-.4-1.2-.8-1.6-.4-.5-.8-.8-1.4-1.1-.6-.3-1.3-.4-2.1-.4s-2,.2-2.8.7c-.8.5-1.5,1.1-2.1,1.9-.6.8-1,1.7-1.3,2.6-.3,1-.4,1.9-.4,2.8s0,1.4.3,2Z"/>
    <path class="cls-1" d="m98.8,77.9l-.6,2.9h0c.6-.9,1.4-1.7,2.4-2.4,1-.7,2.2-1,3.4-1s2.1.3,2.8.9c.7.6,1.1,1.5,1.2,2.7h0c.6-1,1.5-1.9,2.5-2.5,1-.7,2.1-1,3.4-1s2.8.4,3.5,1.2c.7.8,1.1,1.9,1.1,3.2s0,.6,0,.9c0,.3,0,.6-.2,1l-2.3,10.8h-2l2.3-10.9c.1-.6.2-1.1.2-1.7,0-.8-.3-1.5-.8-2-.5-.5-1.3-.8-2.4-.8s-1.6.2-2.3.6c-.7.4-1.2,1-1.7,1.7-.5.7-.9,1.5-1.2,2.4-.3.9-.6,1.9-.8,3l-1.6,7.7h-2l2.3-10.8c.1-.6.2-1.1.2-1.6,0-.8-.2-1.5-.7-2.1-.4-.6-1.2-.9-2.1-.9s-1.4.2-2.1.5c-.7.4-1.3.9-1.8,1.5-.5.6-1,1.4-1.4,2.2-.4.8-.7,1.8-.9,2.7l-1.8,8.4h-2l3.5-16.6h1.9Z"/>
    <path class="cls-1" d="m125.1,80.5c.4-.7.9-1.2,1.6-1.7.6-.4,1.3-.8,2.1-1,.8-.2,1.6-.3,2.5-.3s1.2,0,1.9.2c.7.1,1.3.3,1.9.6.6.3,1.1.7,1.4,1.1.4.5.6,1.1.6,1.8s0,.9-.1,1.4c0,.5-.2,1-.3,1.5-.1.5-.2,1-.3,1.5-.1.5-.2.9-.3,1.3-.2.9-.4,1.7-.5,2.3-.1.6-.3,1.1-.3,1.5,0,.4-.2.7-.2,1,0,.3,0,.5,0,.8s.1.5.4.6c.2,0,.5.1.7.1s.3,0,.4,0c.1,0,.3,0,.4,0l-.3,1.6c-.5.1-1.1.2-1.7.2-1.1,0-1.7-.6-1.8-1.8,0-.2,0-.3,0-.5,0-.1,0-.3,0-.5h0c-.6.9-1.4,1.6-2.4,2.2-1.1.5-2.2.8-3.3.8s-1.5,0-2.1-.3c-.6-.2-1.2-.4-1.7-.8-.5-.4-.8-.8-1.1-1.4-.3-.6-.4-1.3-.4-2.1s.2-1.6.5-2.2c.3-.6.7-1.1,1.3-1.5.5-.4,1.1-.7,1.8-.9.7-.2,1.4-.4,2.2-.5,1.1-.2,2.1-.3,3-.2.9,0,1.7,0,2.3-.2.7-.2,1.2-.5,1.5-.9.3-.5.5-1.2.5-2.3s-.1-.9-.3-1.2c-.2-.3-.5-.6-.8-.7-.3-.2-.7-.3-1.1-.4-.4,0-.8,0-1.2,0-.6,0-1.3,0-1.8.2-.6.1-1.1.3-1.6.6-.5.3-.9.7-1.2,1.2-.3.5-.5,1.1-.6,1.8h-2c.1-.9.4-1.8.8-2.4Zm9.2,5.2c-.2.2-.4.3-.7.5-.3.1-.6.2-1,.3-.3,0-.7.1-1,.1-.4,0-.7,0-.9,0-.6,0-1.3.1-2.1.2-.8,0-1.5.2-2.1.5-.7.2-1.2.6-1.7,1.1-.5.5-.7,1.2-.7,2s.1,1,.3,1.4c.2.4.5.7.8.9.3.2.7.4,1.2.5.5.1.9.2,1.4.2,1.6,0,3-.4,4-1.3,1-.9,1.7-2.1,2-3.5l.6-2.8h0Z"/>
    <path class="cls-1" d="m153.8,96.6c-.4,1.1-1,1.9-1.6,2.6-.6.7-1.4,1.2-2.3,1.5-.9.3-2,.5-3.3.5s-1.7,0-2.4-.3c-.8-.2-1.4-.5-2-.9-.6-.4-1-1-1.4-1.7-.3-.7-.5-1.5-.5-2.5h2c0,.7.1,1.3.4,1.8.3.5.6.8,1,1.1.4.3.9.5,1.5.6.6.1,1.1.2,1.7.2.9,0,1.6-.1,2.2-.4s1.2-.6,1.6-1.1c.4-.5.8-1,1.1-1.6.3-.6.5-1.2.7-1.8.2-.6.4-1.2.5-1.8.1-.6.3-1.1.4-1.6h0c-.6.9-1.4,1.7-2.4,2.2-1.1.5-2.1.8-3.3.8s-1.9-.2-2.6-.5c-.8-.3-1.4-.8-1.9-1.4-.5-.6-.9-1.3-1.2-2.1-.3-.8-.4-1.7-.4-2.7s.2-2.4.6-3.6c.4-1.2.9-2.3,1.7-3.2.7-.9,1.6-1.7,2.7-2.3,1.1-.6,2.2-.9,3.6-.9s1.2,0,1.8.2c.6.2,1.2.4,1.7.7.5.3.9.7,1.3,1.2.3.5.6,1.1.7,1.7h0l.7-3.4h1.9l-3.2,14.9c-.3,1.4-.7,2.7-1.1,3.7Zm-10-7.3c.2.6.4,1.2.8,1.7.4.5.8.9,1.4,1.1s1.2.4,2,.4,2-.3,2.8-.8c.8-.5,1.5-1.2,2.1-2,.6-.8,1-1.7,1.3-2.7.3-1,.5-1.9.5-2.9s0-1.4-.2-2c-.2-.6-.4-1.2-.8-1.6-.4-.5-.8-.8-1.4-1.1-.6-.3-1.3-.4-2.1-.4s-2,.2-2.8.7c-.8.5-1.5,1.1-2.1,1.9-.6.8-1,1.7-1.3,2.6-.3,1-.4,1.9-.4,2.8s0,1.4.3,2Z"/>
    <path class="cls-1" d="m165.7,77.9l-3.6,16.6h-2l3.5-16.6h2Zm1.4-6.4l-.7,3.3h-2l.7-3.3h2Z"/>
    <path class="cls-1" d="m181.6,81.5c-.2-.5-.5-.9-.8-1.2-.4-.3-.8-.6-1.3-.8-.5-.2-1.1-.3-1.7-.3-1.2,0-2.3.3-3.2.8-.9.5-1.6,1.2-2.2,2.1-.6.9-1,1.8-1.3,2.9-.3,1.1-.4,2.1-.4,3.2s0,1.4.3,2c.2.6.5,1.2.9,1.6.4.5.9.8,1.4,1.1s1.3.4,2.1.4c1.4,0,2.5-.4,3.4-1.2.9-.8,1.6-1.8,2-3h2c-.6,1.9-1.6,3.4-2.8,4.4-1.3,1-2.9,1.5-4.9,1.5s-3.6-.6-4.7-1.9c-1.1-1.2-1.7-2.9-1.7-5s.2-2.6.6-3.9c.4-1.3,1-2.4,1.8-3.4.8-1,1.7-1.8,2.8-2.5,1.1-.6,2.4-.9,3.8-.9s1.7.1,2.5.3c.8.2,1.4.6,2,1,.6.5,1,1.1,1.3,1.8.3.7.4,1.5.4,2.5h-2c0-.6,0-1.2-.2-1.7Z"/>
    <path class="cls-1" d="m204,71.6l-2,9.3h0c.6-1,1.4-1.9,2.3-2.5,1-.6,2.1-.9,3.4-.9s2,.2,2.8.5c.8.4,1.4.8,2,1.4.5.6.9,1.3,1.2,2.2.3.8.4,1.8.4,2.8s-.2,2.5-.6,3.8c-.4,1.3-.9,2.4-1.7,3.4-.7,1-1.7,1.8-2.8,2.5-1.1.6-2.4.9-3.8.9s-2.6-.4-3.6-1.1c-1-.7-1.7-1.8-1.9-3.2h0l-.8,3.8h-1.8l4.9-23h2Zm4.1,20.9c.9-.6,1.6-1.3,2.2-2.1.6-.9,1-1.8,1.3-2.9.3-1.1.5-2.1.5-3.1,0-1.5-.4-2.8-1.1-3.7-.8-.9-2-1.4-3.6-1.4s-2.1.3-2.9.9c-.8.6-1.6,1.4-2.1,2.3-.6.9-1,1.9-1.3,2.9-.3,1.1-.4,2.1-.4,3s0,1.4.3,2c.2.6.5,1.1.8,1.6.4.5.8.8,1.4,1.1.6.3,1.2.4,2,.4,1.2,0,2.2-.3,3-.8Z"/>
    <path class="cls-1" d="m222.9,77.9l-3.6,16.6h-2l3.5-16.6h2Zm1.4-6.4l-.7,3.3h-2l.7-3.3h2Z"/>
    <path class="cls-1" d="m230.4,77.9l-.8,3.8h0c.6-1.2,1.4-2.2,2.4-2.9.9-.8,2.2-1.1,3.6-1.1h.8c0,0,.2,0,.3,0l-.5,2c-.2,0-.4,0-.6,0-.2,0-.4,0-.6,0-.9,0-1.7.2-2.4.5-.7.3-1.3.8-1.8,1.4-.5.6-.9,1.2-1.3,1.9-.3.7-.6,1.5-.8,2.3l-1.9,8.7h-2l3.5-16.6h1.8Z"/>
    <path class="cls-1" d="m248.9,94.6l.7-3h0c-.7,1.1-1.5,1.9-2.5,2.5-.9.6-2.1.9-3.6.9-2.1,0-3.7-.6-4.7-1.9-1-1.2-1.6-2.9-1.6-4.9s.2-2.5.6-3.8c.4-1.3,1-2.4,1.8-3.5.8-1,1.7-1.9,2.9-2.5,1.1-.6,2.4-1,3.8-1s2.4.3,3.4.8c1,.5,1.6,1.5,2,2.8h0l2-9.5h2l-4.9,23h-2Zm-2.1-2.1c.9-.6,1.7-1.3,2.3-2.3.6-.9,1.1-1.9,1.4-3,.3-1.1.5-2.2.5-3.2,0-1.5-.4-2.7-1.2-3.5-.8-.9-1.9-1.3-3.4-1.3s-2.2.3-3.1.9c-.9.6-1.6,1.3-2.2,2.2-.6.9-1,1.9-1.3,3-.3,1.1-.5,2.1-.5,3.1s.4,2.6,1.1,3.5c.7.9,1.9,1.4,3.4,1.4s2.2-.3,3.1-.9Z"/>
  </g>
</svg>